Coordinates
version=1
nRows=6
nColumns=107
inDegrees=yes

Units are S.I. units (second, meters, Newtons, ...)
If the header above contains a line with 'inDegrees', this indicates whether rotational values are in degrees (yes) or radians (no).

endheader
time	sternoclavicular_r2	sternoclavicular_r3	unrotscap_r3	unrotscap_r2	acromioclavicular_r2	acromioclavicular_r3	acromioclavicular_r1	unrothum_r1	unrothum_r3	unrothum_r2	elv_angle	shoulder_elv	shoulder1_r2	shoulder_rot	elbow_flexion	pro_sup	deviation	flexion	proximal_distal_r1	proximal_distal_r3	cmc_flexion	cmc_abduction	mp_flexion	ip_flexion	mcp2_flexion	mcp2_abduction	pm2_flexion	md2_flexion	mcp3_flexion	mcp3_abduction	pm3_flexion	md3_flexion	mcp4_flexion	mcp4_abduction	pm4_flexion	md4_flexion	mcp5_flexion	mcp5_abduction	pm5_flexion	md5_flexion	bicpt_tx	bicpt_ty	bicpt_tz	bicpt2_tx	bicpt2_ty	bicpt2_tz	ptpt_tx	ptpt_ty	ptpt_tz	FCUpt_tx	FCUpt_ty	FCUpt_tz	EDCpt_tx	EDCpt_ty	EDCpt_tz	APLpt_tx	APLpt_ty	APLpt_tz	FPLpt_tx	FPLpt_ty	FPLpt_tz	FPLpt2_tx	FPLpt2_ty	FPLpt2_tz	PEC1pt2_tx	PEC1pt2_ty	PEC1pt2_tz	PEC1pt3_tx	PEC1pt3_ty	PEC1pt3_tz	PEC2pt2_tx	PEC2pt2_ty	PEC2pt2_tz	PEC2pt3_tx	PEC2pt3_ty	PEC2pt3_tz	PEC3pt2_tx	PEC3pt2_ty	PEC3pt2_tz	PEC3pt3_tx	PEC3pt3_ty	PEC3pt3_tz	DELT2pt2a_tx	DELT2pt2a_ty	DELT2pt2a_tz	DELT2pt2_tx	DELT2pt2_ty	DELT2pt2_tz	LAT1pt2_tx	LAT1pt2_ty	LAT1pt2_tz	LAT1pt3_tx	LAT1pt3_ty	LAT1pt3_tz	LAT2pt2_tx	LAT2pt2_ty	LAT2pt2_tz	LAT2pt3_tx	LAT2pt3_ty	LAT2pt3_tz	LAT3pt2_tx	LAT3pt2_ty	LAT3pt2_tz	LAT3pt3_tx	LAT3pt3_ty	LAT3pt3_tz
      0.00000000	     -0.32034496	      0.13568301	     -0.13568301	      0.32034496	     -0.06486334	      0.52420268	      0.23562550	     -0.23562550	     -0.52420268	      0.06486334	     99.16799281	     75.84451701	     -1.73080799	    -22.43261926	     28.20640799	     16.90757061	     -0.05824557	     -1.01022390	     -0.08182412	     -0.50511195	     -6.81919090	     -4.66815115	    -31.91346242	      2.08114481	     12.62437642	      1.64086790	     17.15384651	    -32.27445651	     38.08606357	      8.00683172	     87.05310157	     74.66826024	     35.93573282	     -3.71448817	     91.35486705	     59.01917310	      4.06116414	     -5.80415502	    -13.93743494	      4.94312031	      0.00083298	     -0.03083289	     -0.00482073	      0.01592129	     -0.01786241	     -0.00956135	      0.00630072	     -0.06570780	     -0.00141200	      0.00553761	     -0.18389973	     -0.00002170	     -0.00202890	      0.00052316	      0.00016770	      0.00017894	      0.00007158	      0.00035788	      0.00022904	      0.00068712	      0.00038651	     -0.00063300	      0.00019631	      0.00023558	      0.00248602	      0.00872213	      0.00606757	     -0.00813222	      0.01963532	     -0.01862406	      0.00248602	      0.00872213	      0.00606757	      0.00054777	      0.01820270	     -0.00956484	      0.00393571	      0.00485026	      0.01593768	      0.00000000	      0.00769258	      0.00000000	     -0.00712096	     -0.03290812	     -0.00634239	      0.01514053	     -0.00050780	     -0.00418841	     -0.00088485	      0.01483183	     -0.00606757	      0.00244388	      0.02140503	     -0.01769707	     -0.00594116	      0.01285144	     -0.00543553	     -0.01238795	      0.02713551	     -0.03037997	     -0.02325900	      0.01436833	     -0.00728951	     -0.01542173	      0.03134909	     -0.03796443
      0.03333333	     -0.31995658	      0.13551851	     -0.13551851	      0.31995658	     -0.06478470	      0.52356716	      0.23533983	     -0.23533983	     -0.52356716	      0.06478470	     99.23479261	     75.75256543	     -1.73197386	    -22.74349158	     28.18489995	     16.54636628	     -0.05754069	     -1.00933868	     -0.08080074	     -0.50466934	     -6.76194337	     -4.67459613	    -31.89803254	      2.08173974	     12.57471926	      1.60829337	     17.14827625	    -32.27409817	     38.10118576	      8.07152676	     87.05874990	     74.66817901	     35.94188369	     -3.66897809	     91.34422707	     59.01304990	      4.06394316	     -6.21755867	    -13.98153769	      4.92280816	      0.00083227	     -0.03083042	     -0.00482034	      0.01590141	     -0.01785657	     -0.00958813	      0.00632741	     -0.06569055	     -0.00138290	      0.00550384	     -0.18390486	     -0.00001281	     -0.00198556	      0.00051106	      0.00016574	      0.00017953	      0.00007181	      0.00035906	      0.00022980	      0.00068939	      0.00038778	     -0.00062319	      0.00019445	      0.00023334	      0.00248300	      0.00871155	      0.00606021	     -0.00812237	      0.01961151	     -0.01860148	      0.00248300	      0.00871155	      0.00606021	      0.00054710	      0.01818063	     -0.00955325	      0.00393222	      0.00484438	      0.01592909	      0.00000000	      0.00767381	      0.00000000	     -0.00711233	     -0.03286822	     -0.00632681	      0.01530919	     -0.00051765	     -0.00430861	     -0.00088378	      0.01481385	     -0.00606021	      0.00244092	      0.02137908	     -0.01767561	     -0.00593396	      0.01283586	     -0.00542894	     -0.01237293	      0.02710261	     -0.03034314	     -0.02323081	      0.01435091	     -0.00728067	     -0.01540303	      0.03131109	     -0.03791840
      0.06666667	     -0.31983566	      0.13546729	     -0.13546729	      0.31983566	     -0.06476022	      0.52336928	      0.23525089	     -0.23525089	     -0.52336928	      0.06476022	     99.26140209	     75.72393590	     -1.73243829	    -22.88417908	     28.19469006	     16.37791317	     -0.05736445	     -1.00645226	     -0.08054504	     -0.50322613	     -6.94141783	     -4.49588288	    -32.04395695	      2.01039807	     12.73874101	      1.70171810	     17.23823386	    -32.24197593	     38.27857957	      8.24558054	     87.04498010	     74.63784710	     35.91094366	     -3.53973048	     91.29189275	     58.98549794	      3.74226181	     -7.41988314	    -14.28232787	      4.84941279	      0.00083259	     -0.03083154	     -0.00482052	      0.01589199	     -0.01785923	     -0.00960054	      0.00633986	     -0.06568250	     -0.00136933	      0.00548811	     -0.18390724	     -0.00000862	     -0.00196534	      0.00050543	      0.00016479	      0.00018145	      0.00007258	      0.00036290	      0.00023225	      0.00069676	      0.00039193	     -0.00065437	      0.00020030	      0.00024037	      0.00248206	      0.00870826	      0.00605792	     -0.00811930	      0.01960410	     -0.01859445	      0.00248206	      0.00870826	      0.00605792	      0.00054690	      0.01817376	     -0.00954964	      0.00393113	      0.00484255	      0.01592641	      0.00000000	      0.00766797	      0.00000000	     -0.00710964	     -0.03285580	     -0.00632196	      0.01538495	     -0.00052213	     -0.00436365	     -0.00088345	      0.01480825	     -0.00605792	      0.00244000	      0.02137100	     -0.01766893	     -0.00593171	      0.01283101	     -0.00542689	     -0.01236825	      0.02709236	     -0.03033167	     -0.02322203	      0.01434549	     -0.00727792	     -0.01539721	      0.03129925	     -0.03790407
      0.10000000	     -0.31770822	      0.13456621	     -0.13456621	      0.31770822	     -0.06432945	      0.51988801	      0.23368608	     -0.23368608	     -0.51988801	      0.06432945	     99.79112368	     75.22024589	     -1.74168367	    -25.64859180	     28.28394865	     18.95018828	     -0.06437036	     -0.99750387	     -0.09075067	     -0.49875193	     -6.84141311	     -4.01064467	    -32.13491768	      1.30598232	     12.82157662	      1.56017208	     17.40997638	    -31.75939204	     38.71423862	      8.13808458	     86.96024610	     74.18611933	     36.34589822	     -3.68537125	     90.62898153	     59.02620513	      4.84051952	     -7.96561597	    -16.66829243	      4.92152053	      0.00083555	     -0.03084177	     -0.00482216	      0.01602824	     -0.01788347	     -0.00940650	      0.00614979	     -0.06580540	     -0.00157654	      0.00572935	     -0.18387004	     -0.00007015	     -0.00227402	      0.00059234	      0.00017746	      0.00018731	      0.00007492	      0.00037462	      0.00023976	      0.00071927	      0.00040459	     -0.00063687	      0.00019704	      0.00023645	      0.00246555	      0.00865034	      0.00601762	     -0.00806529	      0.01947370	     -0.01847076	      0.00246555	      0.00865034	      0.00601762	      0.00054326	      0.01805287	     -0.00948612	      0.00391194	      0.00481034	      0.01587896	      0.00000000	      0.00756562	      0.00000000	     -0.00706235	     -0.03263726	     -0.00623697	      0.01682241	     -0.00061143	     -0.00550013	     -0.00087757	      0.01470975	     -0.00601762	      0.00242377	      0.02122884	     -0.01755141	     -0.00589226	      0.01274566	     -0.00539079	     -0.01228598	      0.02691216	     -0.03012991	     -0.02306756	      0.01425007	     -0.00722951	     -0.01529480	      0.03109106	     -0.03765194
      0.13333333	     -0.31766113	      0.13454626	     -0.13454626	      0.31766113	     -0.06431992	      0.51981094	      0.23365144	     -0.23365144	     -0.51981094	      0.06431992	     99.79319507	     75.20909598	     -1.74171983	    -25.64666424	     28.28300868	     18.94908912	     -0.06437628	     -0.99749224	     -0.09075981	     -0.49874612	     -6.84104939	     -4.01046171	    -32.13478524	      1.30602382	     12.82206153	      1.56009914	     17.41006383	    -31.75936845	     38.71460804	      8.13831255	     86.96022104	     74.18611166	     36.34647075	     -3.68512893	     90.62873943	     59.02608272	      4.84033827	     -7.96687622	    -16.66865919	      4.92143964	      0.00083551	     -0.03084167	     -0.00482215	      0.01602818	     -0.01788322	     -0.00940658	      0.00614988	     -0.06580534	     -0.00157645	      0.00572924	     -0.18387006	     -0.00007012	     -0.00227389	      0.00059230	      0.00017746	      0.00018732	      0.00007493	      0.00037463	      0.00023977	      0.00071930	      0.00040461	     -0.00063682	      0.00019703	      0.00023643	      0.00246519	      0.00864905	      0.00601673	     -0.00806409	      0.01947082	     -0.01846803	      0.00246519	      0.00864905	      0.00601673	      0.00054318	      0.01805020	     -0.00948471	      0.00391151	      0.00480963	      0.01587790	      0.00000000	      0.00756336	      0.00000000	     -0.00706130	     -0.03263242	     -0.00623510	      0.01682144	     -0.00061137	     -0.00549930	     -0.00087744	      0.01470757	     -0.00601673	      0.00242341	      0.02122570	     -0.01754880	     -0.00589138	      0.01274377	     -0.00538999	     -0.01228416	      0.02690817	     -0.03012545	     -0.02306414	      0.01424796	     -0.00722844	     -0.01529253	      0.03108645	     -0.03764636
      0.16666667	     -0.31918294	      0.13519083	     -0.13519083	      0.31918294	     -0.06462805	      0.52230118	      0.23477079	     -0.23477079	     -0.52230118	      0.06462805	     99.38764194	     75.56939739	     -1.73464159	    -23.67170783	     28.27569133	     16.86513160	     -0.06073172	     -0.99953150	     -0.08544018	     -0.49976575	     -6.86689965	     -3.89878146	    -32.11632998	      1.33261139	     12.62458716	      1.51787544	     17.18342394	    -30.24110513	     38.74305226	      8.26195376	     86.92971463	     74.09523733	     36.30729432	     -3.51798193	     90.74930720	     57.97383903	      4.54908207	     -8.28720555	    -17.17309635	      4.90777518	      0.00083527	     -0.03084083	     -0.00482201	      0.01591896	     -0.01788123	     -0.00956450	      0.00630386	     -0.06570578	     -0.00140858	      0.00553364	     -0.18390034	     -0.00002066	     -0.00202381	      0.00052174	      0.00016747	      0.00018599	      0.00007440	      0.00037199	      0.00023807	      0.00071422	      0.00040175	     -0.00064117	      0.00019786	      0.00023744	      0.00247700	      0.00869049	      0.00604556	     -0.00810273	      0.01956409	     -0.01855650	      0.00247700	      0.00869049	      0.00604556	      0.00054578	      0.01813667	     -0.00953015	      0.00392525	      0.00483267	      0.01591191	      0.00000000	      0.00763649	      0.00000000	     -0.00709513	     -0.03278875	     -0.00629582	      0.01580489	     -0.00054730	     -0.00467625	     -0.00088164	      0.01477803	     -0.00604556	      0.00243502	      0.02132738	     -0.01763287	     -0.00591961	      0.01280483	     -0.00541581	     -0.01234301	      0.02703707	     -0.03026977	     -0.02317463	      0.01431621	     -0.00726306	     -0.01536579	      0.03123538	     -0.03782671
